<?xml version="1.0" encoding="utf-8"?>
<svg width="200px" height="100px" viewBox="0 0 200 100" class="css-1j8o68f" xmlns="http://www.w3.org/2000/svg">
  <rect y="-0.018" width="200" height="100" style="fill: rgb(70, 205, 207);"/>
  <rect x="5" y="5" width="190" height="90" style="fill: rgb(255, 255, 255);"/>
  <g id="SvgjsG1229" featurekey="symbolFeature-0" transform="matrix(0.86877, 0, 0, 0.86877, 56.780422, -8.8142)" fill="#46cdcf" style="">
    <g xmlns="http://www.w3.org/2000/svg">
      <path d="M49.572,74.521c-0.188-0.546-3.429-5.392-4.163-5.007c-0.734,0.385,1.451,5.866,1.813,6.349L49.572,74.521z"/>
      <rect x="48" y="74" transform="matrix(-0.4963 -0.8681 0.8681 -0.4963 6.4728 157.7554)" width="2" height="5.999"/>
      <path d="M78.5,47c-2.455,0-4.794,0.473-6.958,1.301l-5.734-13.27c0,0,12.192-7.031,12.66,1.637c0,0.007,0.009,0.007,0.01,0.014   l2.136-1.424c-1.482-11.71-17.487-1.737-17.487-1.737l1.716,4.285l-25.2,10.5c-1.061-2.804-2.798-8.399-4.016-9.41   c2.559-0.575,6.681,0.049,6.682,0.049c-0.08-0.012-0.441-0.865-0.675-0.987c-0.265-0.139-2.77,0.035-3.829,0.046   C34.537,38.038,31.268,38,28,38v0.887c0.854,1.444,4.636,0.964,5.725,0.792C36,42,37.84,49.057,37.84,49.057l-0.039,0.017   l-3.102,3.103C31.224,48.973,26.598,47,21.5,47C10.73,47,2,55.73,2,66.5S10.73,86,21.5,86c9.329,0,17.117-6.556,19.036-15.308   C41.347,72.351,43.03,73.5,45,73.5c0.087,0,0.169-0.021,0.256-0.025c-0.009-0.018-0.02-0.033-0.029-0.051   c-1.148-2.204-1.284-4.405-0.305-4.915s2.704,0.863,3.852,3.067c0.019,0.037,0.032,0.073,0.051,0.109   C49.548,70.818,50,69.718,50,68.5c0-1.284-0.498-2.443-1.294-3.329l18.389-21.732l-0.009-0.022l2.561,5.724   C63.332,52.368,59,58.922,59,66.5C59,77.27,67.73,86,78.5,86S98,77.27,98,66.5S89.27,47,78.5,47z M32.999,56.133   c2.374,2.631,3.854,6.073,3.976,9.867H26.452c-0.212-1.082-0.84-2.011-1.708-2.626L32.999,56.133z M21.5,82   C12.939,82,6,75.061,6,66.5S12.939,51,21.5,51c3.994,0,7.622,1.523,10.37,4.004l-7.92,7.92c-0.504-0.213-1.059-0.331-1.641-0.331   c-2.333,0-4.226,1.892-4.226,4.225s1.892,4.226,4.226,4.226c1.725,0,3.204-1.038,3.86-2.52l10.533,0.989   C35.299,76.631,29.029,82,21.5,82z M40.956,65.618c-0.208-4.653-2.04-8.874-4.953-12.12l2.582-2.265l4.353,12.723   C42.132,64.322,41.461,64.905,40.956,65.618z M47.102,63.977c-0.522-0.242-1.093-0.387-1.694-0.436   c-0.785-2.072-3.085-8.153-4.956-13.096l23.263-9.823l0.563,1.127L47.102,63.977z M78.5,82C69.939,82,63,75.061,63,66.5   c0-5.951,3.357-11.112,8.278-13.71l6.232,13.933c-0.36,0.399-0.586,0.923-0.586,1.503c0,1.245,1.01,2.254,2.254,2.254   s2.253-1.009,2.253-2.254c0-1.243-1.009-2.253-2.253-2.253L73.13,51.976C74.806,51.355,76.609,51,78.5,51   C87.061,51,94,57.939,94,66.5S87.061,82,78.5,82z"/>
    </g>
  </g>
  <g id="SvgjsG1230" featurekey="nameFeature-0" transform="matrix(0.430528, 0, 0, 0.430528, 19.053698, 66.667747)" fill="#46cdcf" style="">
    <path d="M 19.796 10.715 L 9.996 38.955 L 2.796 38.955 L -6.884 10.715 L 0.636 10.715 L 6.476 30.795 L 12.276 10.715 L 19.796 10.715 Z M 40.756 29.795 L 25.836 29.795 C 25.836 29.995 25.796 30.475 25.916 31.035 C 26.396 33.475 28.116 34.995 30.596 34.995 C 30.956 34.995 31.756 34.955 32.596 34.635 C 34.676 33.915 35.596 31.795 35.876 31.275 L 40.516 33.675 C 39.676 34.915 39.236 35.475 38.756 36.035 C 35.676 39.435 31.676 39.715 30.116 39.715 C 29.476 39.715 27.996 39.675 26.356 39.155 C 21.716 37.715 19.556 33.635 19.556 28.915 C 19.556 27.635 19.636 23.755 22.236 20.755 C 23.516 19.315 25.716 17.435 30.276 17.435 C 31.676 17.435 35.836 17.595 38.436 21.235 C 40.796 24.475 40.716 28.795 40.756 29.795 Z M 34.396 25.955 C 34.316 25.275 34.196 23.155 32.116 22.235 C 31.276 21.835 30.596 21.835 30.236 21.835 C 27.796 21.835 26.676 23.635 26.356 24.355 C 26.196 24.715 26.036 25.155 25.876 25.955 L 34.396 25.955 Z M 50.476 38.955 L 44.356 38.955 L 44.356 10.715 L 50.476 10.715 L 50.476 38.955 Z M 76.996 28.515 C 76.996 33.235 74.756 35.955 73.316 37.155 C 72.116 38.155 69.676 39.595 65.756 39.595 C 64.676 39.595 60.436 39.395 57.556 36.595 C 56.316 35.395 54.556 32.835 54.556 28.475 C 54.556 27.275 54.636 23.875 56.996 21.035 C 58.436 19.315 61.316 17.155 66.596 17.475 C 69.036 17.595 71.196 18.155 73.156 19.715 C 75.756 21.835 76.996 25.155 76.996 28.515 Z M 70.756 28.715 C 70.756 25.555 69.756 23.955 68.556 23.115 C 67.996 22.715 67.156 22.315 65.516 22.315 C 65.236 22.315 64.076 22.395 63.196 22.915 C 62.076 23.555 60.756 25.355 60.756 28.435 C 60.756 30.475 61.436 31.995 61.836 32.635 C 62.316 33.355 63.516 34.675 65.836 34.675 C 69.236 34.675 70.756 31.835 70.756 28.715 Z M 123.876 38.955 L 117.076 38.955 L 117.636 16.235 L 111.356 38.955 L 105.236 38.955 L 98.996 16.235 L 99.556 38.955 L 92.676 38.955 L 92.676 10.715 L 102.996 10.715 L 108.316 30.475 L 113.556 10.715 L 123.876 10.715 L 123.876 38.955 Z M 147.676 38.955 L 141.636 38.955 L 141.636 37.075 C 141.196 37.395 140.796 37.675 140.356 37.955 C 139.596 38.475 137.836 39.515 135.236 39.515 C 131.476 39.515 129.756 37.475 129.076 36.075 C 128.636 35.195 128.396 34.155 128.396 33.155 C 128.396 29.395 131.756 27.595 132.676 27.195 C 134.236 26.515 137.076 25.955 141.036 25.235 L 141.036 24.075 C 141.036 23.355 140.916 21.555 138.676 21.555 C 136.876 21.555 136.036 22.395 135.716 23.075 C 135.636 23.235 135.516 23.555 135.436 23.995 L 129.276 23.995 C 129.356 23.155 129.396 21.355 130.956 19.795 C 132.676 18.115 134.956 17.795 135.676 17.675 C 136.876 17.515 137.876 17.515 138.356 17.515 C 141.276 17.515 145.236 18.195 146.636 21.195 C 146.876 21.755 147.076 22.315 147.076 23.515 L 147.076 35.715 C 147.076 37.515 147.156 38.195 147.676 38.955 Z M 141.036 28.955 L 137.076 30.275 C 136.836 30.355 136.596 30.435 136.356 30.555 C 134.836 31.195 134.436 32.075 134.436 32.875 C 134.436 32.995 134.476 33.435 134.676 33.835 C 134.916 34.235 135.516 34.995 136.796 34.995 C 137.916 34.995 138.876 34.355 139.156 34.155 C 140.956 32.875 141.036 30.915 141.036 28.955 Z M 171.356 38.955 L 165.196 38.955 L 165.196 27.155 C 165.196 25.755 165.156 24.715 164.956 24.155 C 164.676 23.435 163.916 22.475 162.156 22.475 C 161.876 22.475 160.836 22.475 160.076 23.115 C 159.036 23.915 158.916 25.195 158.916 27.675 L 158.916 38.955 L 152.756 38.955 L 152.756 18.115 L 158.996 18.115 L 158.996 19.915 C 159.196 19.715 159.436 19.395 159.956 18.995 C 160.716 18.435 162.396 17.555 164.876 17.555 C 165.356 17.555 167.116 17.595 168.596 18.395 C 171.156 19.755 171.356 22.115 171.356 24.675 L 171.356 38.955 Z M 195.476 38.955 L 189.316 38.955 L 189.316 36.995 C 188.876 37.475 188.636 37.715 188.396 37.915 C 187.636 38.515 185.796 39.555 183.236 39.555 C 182.756 39.555 180.436 39.555 178.796 38.275 C 176.476 36.435 176.676 33.075 176.676 30.515 L 176.676 18.075 L 182.876 18.075 L 182.876 31.075 C 182.876 32.395 182.916 33.395 184.036 34.075 C 184.396 34.275 184.916 34.555 185.836 34.555 C 187.796 34.555 188.836 33.435 189.116 32.675 C 189.316 32.155 189.356 31.635 189.356 31.075 L 189.356 18.075 L 195.476 18.075 L 195.476 38.955 Z M 212.156 22.315 L 208.076 22.315 L 208.076 38.955 L 201.956 38.955 L 201.956 22.315 L 198.676 22.315 L 198.676 18.555 L 201.956 18.555 L 201.956 15.955 C 201.956 15.635 201.956 14.075 202.636 12.835 C 203.676 10.875 206.276 10.275 208.236 10.275 C 209.676 10.275 211.676 10.595 211.916 10.635 L 211.916 15.275 C 210.556 15.275 209.396 15.235 208.916 15.435 C 208.396 15.635 208.196 16.115 208.156 16.315 C 207.996 16.795 208.036 18.035 208.036 18.555 L 212.156 18.555 L 212.156 22.315 Z M 233.476 38.955 L 227.436 38.955 L 227.436 37.075 C 226.996 37.395 226.596 37.675 226.156 37.955 C 225.396 38.475 223.636 39.515 221.036 39.515 C 217.276 39.515 215.556 37.475 214.876 36.075 C 214.436 35.195 214.196 34.155 214.196 33.155 C 214.196 29.395 217.556 27.595 218.476 27.195 C 220.036 26.515 222.876 25.955 226.836 25.235 L 226.836 24.075 C 226.836 23.355 226.716 21.555 224.476 21.555 C 222.676 21.555 221.836 22.395 221.516 23.075 C 221.436 23.235 221.316 23.555 221.236 23.995 L 215.076 23.995 C 215.156 23.155 215.196 21.355 216.756 19.795 C 218.476 18.115 220.756 17.795 221.476 17.675 C 222.676 17.515 223.676 17.515 224.156 17.515 C 227.076 17.515 231.036 18.195 232.436 21.195 C 232.676 21.755 232.876 22.315 232.876 23.515 L 232.876 35.715 C 232.876 37.515 232.956 38.195 233.476 38.955 Z M 226.836 28.955 L 222.876 30.275 C 222.636 30.355 222.396 30.435 222.156 30.555 C 220.636 31.195 220.236 32.075 220.236 32.875 C 220.236 32.995 220.276 33.435 220.476 33.835 C 220.716 34.235 221.316 34.995 222.596 34.995 C 223.716 34.995 224.676 34.355 224.956 34.155 C 226.756 32.875 226.836 30.915 226.836 28.955 Z M 259.556 38.955 L 252.436 38.955 L 247.076 29.955 L 244.436 32.475 L 244.436 38.955 L 238.436 38.955 L 238.436 10.715 L 244.476 10.715 L 244.476 25.235 L 251.236 18.075 L 258.636 18.075 L 251.436 25.515 Z M 272.716 22.355 L 268.636 22.355 L 268.636 31.715 C 268.636 32.555 268.596 33.035 268.796 33.395 C 269.156 34.075 270.116 34.075 270.236 34.075 C 270.956 34.075 271.676 34.035 272.396 34.035 L 272.396 38.795 C 271.996 38.875 270.556 39.115 269.156 39.115 C 268.716 39.115 268.276 39.115 267.876 39.075 C 267.316 39.035 265.476 39.075 264.076 37.795 C 262.476 36.395 262.556 34.275 262.556 32.355 L 262.556 22.315 L 259.516 22.315 L 259.516 18.555 L 262.556 18.555 L 262.556 12.035 L 268.636 12.035 L 268.636 18.595 L 272.716 18.595 L 272.716 22.355 Z M 294.596 38.955 L 288.436 38.955 L 288.436 36.995 C 287.996 37.475 287.756 37.715 287.516 37.915 C 286.756 38.515 284.916 39.555 282.356 39.555 C 281.876 39.555 279.556 39.555 277.916 38.275 C 275.596 36.435 275.796 33.075 275.796 30.515 L 275.796 18.075 L 281.996 18.075 L 281.996 31.075 C 281.996 32.395 282.036 33.395 283.156 34.075 C 283.516 34.275 284.036 34.555 284.956 34.555 C 286.916 34.555 287.956 33.435 288.236 32.675 C 288.436 32.155 288.476 31.635 288.476 31.075 L 288.476 18.075 L 294.596 18.075 L 294.596 38.955 Z M 312.076 23.275 L 310.036 23.595 C 309.836 23.635 308.876 23.755 308.116 24.035 C 306.476 24.595 306.196 25.635 306.196 27.195 L 306.196 38.955 L 300.076 38.955 L 300.076 18.075 L 306.036 18.075 L 306.036 20.235 C 306.556 19.795 307.116 19.235 308.476 18.675 C 310.156 17.995 311.316 17.915 312.076 17.835 L 312.076 23.275 Z M 352.276 38.955 L 344.756 38.955 L 343.356 34.435 L 332.956 34.435 L 331.556 38.955 L 324.036 38.955 L 334.516 10.715 L 341.876 10.715 Z M 341.756 29.355 L 338.076 17.435 L 334.596 29.355 L 341.756 29.355 Z M 380.556 38.955 L 375.036 38.955 L 375.036 36.355 C 374.276 37.035 373.676 37.515 373.316 37.755 C 370.676 39.515 367.836 39.595 366.716 39.595 C 365.716 39.595 363.636 39.515 361.276 38.395 C 356.156 35.915 353.996 30.275 353.996 24.835 C 353.996 22.755 354.396 15.235 360.956 11.555 C 362.116 10.875 364.476 9.755 367.916 9.755 C 373.196 9.755 376.436 12.235 377.916 13.555 C 378.916 14.435 379.556 15.235 380.356 16.275 L 374.996 19.515 C 374.876 19.315 374.076 18.035 373.196 17.275 C 371.396 15.635 369.236 15.555 368.436 15.555 C 367.916 15.555 366.036 15.595 364.556 16.555 C 362.876 17.635 361.036 20.115 361.036 24.635 C 361.036 25.235 361.036 29.195 362.996 31.595 C 363.716 32.475 364.676 32.955 365.036 33.155 C 365.556 33.395 366.836 33.915 368.436 33.915 C 368.916 33.915 369.796 33.915 370.876 33.555 C 371.436 33.355 373.156 32.675 373.996 30.955 C 374.436 30.075 374.556 28.875 374.596 28.635 L 368.276 28.635 L 368.276 23.275 L 380.556 23.275 L 380.556 38.955 Z"/>
  </g>
</svg>