<?xml version="1.0" encoding="UTF-8" standalone="no"?>
<svg
   viewBox="-0.004 -0.001 127.495 127.532"
   version="1.1"
   id="svg3"
   sodipodi:docname="favicon.svg"
   inkscape:version="1.4 (e7c3feb100, 2024-10-09)"
   inkscape:export-filename="favicon.png"
   inkscape:export-xdpi="96"
   inkscape:export-ydpi="96"
   xmlns:inkscape="http://www.inkscape.org/namespaces/inkscape"
   xmlns:sodipodi="http://sodipodi.sourceforge.net/DTD/sodipodi-0.dtd"
   xmlns="http://www.w3.org/2000/svg"
   xmlns:svg="http://www.w3.org/2000/svg">
  <sodipodi:namedview
     id="namedview3"
     pagecolor="#ffffff"
     bordercolor="#000000"
     borderopacity="0.25"
     inkscape:showpageshadow="2"
     inkscape:pageopacity="0.0"
     inkscape:pagecheckerboard="0"
     inkscape:deskcolor="#d1d1d1"
     inkscape:zoom="11.313709"
     inkscape:cx="47.420348"
     inkscape:cy="63.197668"
     inkscape:window-width="2560"
     inkscape:window-height="1295"
     inkscape:window-x="0"
     inkscape:window-y="32"
     inkscape:window-maximized="1"
     inkscape:current-layer="svg3" />
  <defs
     id="defs1">
    <style
       id="style1">.a{fill:#fff;}.b{fill:#b5e7d6;}.c{fill:#0b9fa3;}.d{fill:#14d6c4;}</style>
  </defs>
  <path
     class="b"
     d="M118.247,27.22c-.045-.053-.086-.109-.131-.162-.53-.632-1.08-1.253-1.639-1.869-.073-.081-.141-.164-.214-.245l0,0c-1.062-1.16-2.165-2.26-3.291-3.323-.117-.11-.23-.224-.348-.333-1.107-1.03-2.246-2.007-3.409-2.943-.122-.1-.244-.2-.368-.3q-1.8-1.434-3.69-2.719l-.144-.1a63.869,63.869,0,0,0-66.3-3.193l.016.018A63.7,63.7,0,0,1,69.945,4.3,16.3,16.3,0,0,1,83.658,20.665,15.888,15.888,0,0,1,71.027,35.9c-.3-.015-.6-.008-.893-.015A32.148,32.148,0,0,1,101.406,67.9c0,.09-.024,1.376-.055,1.929-.016.279-.142,1.777-.2,2.245-.054.423-.3,1.964-.371,2.312-.156.769-.688,2.728-.754,2.948a32.085,32.085,0,0,1-4.567,9.341,15.819,15.819,0,0,0,5.81,20.019,16.269,16.269,0,0,0,20.633-2.7c.185-.243.289-.467.439-.692l-.072.111A63.913,63.913,0,0,0,118.247,27.22Z"
     transform="matrix(1, 0, 0, 1, -5.473, -4.267)"
     id="path1" />
  <path
     class="c"
     d="M17.7,105.389a16.068,16.068,0,0,1,4.213-21.915,15.694,15.694,0,0,1,20.12,1.847c.021.033.044.066.066.1a32.316,32.316,0,0,1-5-18.658c0-.076.005-.151.008-.227a32.3,32.3,0,0,1,.788-5.7c.05-.22.58-2.218.836-2.986.044-.133.079-.269.126-.4.3-.853.638-1.694,1.008-2.524.112-.252.235-.5.354-.749.3-.623,1.217-2.325,1.357-2.561q.691-1.164,1.486-2.281c.14-.195,1.329-1.721,1.806-2.275.2-.232.4-.464.61-.692.6-.657,1.226-1.3,1.89-1.916.048-.045,1.652-1.438,2.436-2.035.236-.178,1.852-1.3,2.434-1.666.28-.175.556-.359.84-.524a32.212,32.212,0,0,1,8.672-3.478c.116-.027.232-.048.348-.074.589-.134,1.18-.256,1.774-.356.282-.048.565-.083.849-.124.421-.06.842-.118,1.265-.16.4-.041.794-.069,1.192-.1.3-.019.6-.038.9-.049.49-.018.98-.023,1.47-.019.2,0,.391,0,.587.01.3.007.595,0,.893.015A15.888,15.888,0,0,0,83.658,20.665,16.3,16.3,0,0,0,69.945,4.3,63.717,63.717,0,0,0,30.038,17.743c-.218.169-.434.34-.65.513-1.1.879-2.18,1.785-3.232,2.748l-.006.005-.013.013c-.729.668-1.433,1.354-2.124,2.048-.228.229-.449.462-.673.694q-.694.719-1.363,1.454c-.249.274-.5.549-.74.827-.42.479-.827.964-1.23,1.452-.225.273-.456.542-.676.818q-.829,1.042-1.612,2.111c-.28.382-.545.773-.815,1.161-.257.368-.515.736-.763,1.109-.3.457-.6.918-.891,1.381q-.27.432-.534.866c-.318.525-.633,1.05-.935,1.582-.061.107-.118.216-.178.323a63.8,63.8,0,0,0,6.408,71.721c-.7-.908-1.343-1.773-1.921-2.605C17.958,105.78,17.833,105.592,17.7,105.389Z"
     transform="matrix(1, 0, 0, 1, -5.473, -4.267)"
     id="path2" />
  <path
     class="d"
     d="M101.268,106.7a15.82,15.82,0,0,1-5.81-20.019l.01-.015a31,31,0,0,1-7.076,7.2q-.984.732-2.007,1.377c-.172.108-.343.216-.516.321q-1.044.632-2.124,1.178c-.117.059-.231.126-.349.184q-1.239.607-2.514,1.1c-.214.082-.432.15-.647.228q-.9.327-1.81.6c-.379.113-.76.215-1.142.313-.424.11-.851.206-1.279.3-.474.1-.949.205-1.427.285-.191.032-.383.051-.575.08a32.364,32.364,0,0,1-17.265-2.176s-3.257-1.474-4.779-2.43a31.785,31.785,0,0,1-4.726-3.639c-.606-.562-1.2-1.143-1.768-1.763-.285-.311-.556-.63-.826-.95-.04-.047-.083-.093-.122-.14-.268-.321-.524-.647-.778-.975-.041-.054-.084-.106-.124-.159-.258-.339-.506-.682-.748-1.028-.03-.043-.061-.085-.09-.128q-.35-.5-.677-1.019c-.022-.033-.045-.066-.066-.1a15.694,15.694,0,0,0-20.12-1.847A16.068,16.068,0,0,0,17.7,105.389c.133.2.258.391.39.575.578.832,1.22,1.7,1.921,2.605.076.093.149.188.227.281.628.753,1.272,1.5,1.941,2.23.013.013.024.028.037.041l.022.024c.648.707,1.316,1.385,1.988,2.056.237.234.473.469.712.7q.886.855,1.8,1.669c.342.305.69.6,1.037.9.173.148.349.29.523.436,1.309,1.1,2.643,2.151,4.018,3.128l-.005,0c.34.242.69.468,1.034.7.412.28.82.57,1.237.84.8.521,1.617,1.019,2.438,1.5.235.137.475.264.711.4.641.364,1.286.722,1.936,1.063.238.124.478.241.717.361q1.01.513,2.032.989c.2.1.41.186.615.278q1.125.507,2.265.968l.417.168q1.337.529,2.692,1l.027.01a63.888,63.888,0,0,0,50.707-3.935c.113-.061.225-.125.338-.186q1.128-.607,2.239-1.264c.221-.132.441-.267.662-.4q.942-.575,1.869-1.184c.267-.176.532-.352.8-.531q.861-.586,1.705-1.2c.275-.2.551-.4.823-.6.575-.434,1.142-.884,1.706-1.34.239-.193.481-.378.718-.575.789-.657,1.569-1.331,2.334-2.033a63.944,63.944,0,0,0,9.573-11.064A16.314,16.314,0,0,1,101.268,106.7Z"
     transform="matrix(1, 0, 0, 1, -5.473, -4.267)"
     id="path3" />
  <path
     style="fill:#714b67;fill-opacity:1;stroke:#ffffff;stroke-width:0.116788"
     d="M 10.193783,98.193753 C 5.1582868,90.428377 1.7711258,81.144016 0.58982947,71.868883 -0.06163627,66.753798 -0.08221119,61.150002 0.53177825,56.058021 2.7413248,37.733651 12.919004,21.179244 28.320979,10.857758 31.62222,8.645464 36.608498,6.0167705 40.174915,4.6085352 47.440677,1.7395769 55.6424,0.11909294 62.906503,0.11726253 c 1.640246,-4.1331e-4 2.032724,0.0379035 3.022574,0.29508829 4.186499,1.08774408 7.716446,3.74552748 9.922388,7.47080838 3.202154,5.4076358 2.98976,12.0196748 -0.55285,17.2106388 -0.334599,0.490286 -1.161222,1.446281 -1.836941,2.124431 -1.88946,1.896262 -3.949317,3.158285 -6.425624,3.936821 -1.042449,0.32774 -1.261186,0.353019 -3.620414,0.418422 -5.428047,0.150476 -9.335967,1.089171 -13.976848,3.357283 -4.017473,1.963437 -7.89273,5.090837 -10.828424,8.738728 -6.043361,7.509472 -8.408463,17.673703 -6.304255,27.093087 0.64904,2.905399 1.451292,5.1382 2.811947,7.826121 0.468879,0.926253 0.852507,1.697872 0.852507,1.714709 0,0.01684 -0.47528,-0.326293 -1.056178,-0.762513 -1.869729,-1.404052 -4.30393,-2.490236 -6.593406,-2.942093 -1.094711,-0.216056 -4.744665,-0.216056 -5.839377,0 -4.950873,0.977117 -9.180805,4.259615 -11.320065,8.784559 -1.006257,2.128426 -1.4452781,3.913551 -1.5518069,6.309874 -0.106054,2.385642 0.2852033,4.630451 1.1967629,6.866331 0.221011,0.542097 0.382974,1.004495 0.359919,1.02755 -0.02305,0.02306 -0.460738,-0.603954 -0.972629,-1.393355 z"
     id="path4"
     transform="translate(-0.004,-0.001)" />
  <path
     style="fill:#cec0ca;fill-opacity:1;stroke:#ffffff;stroke-width:0.116788"
     d="m 102.71464,104.8026 c -2.3558,-0.3584 -3.887064,-0.83247 -5.67567,-1.75718 -3.041519,-1.57246 -5.476979,-4.095018 -6.927081,-7.174801 -1.078677,-2.290937 -1.503367,-4.176213 -1.510039,-6.703329 -0.0086,-3.271535 0.607119,-5.421267 2.308183,-8.058341 6.173058,-9.569785 6.736338,-21.970647 1.4608,-32.160127 C 87.421517,39.389427 77.949879,32.890002 67.3115,31.753143 l -1.301181,-0.139049 1.318649,-0.441883 c 3.526432,-1.181716 6.256836,-3.283499 8.31667,-6.401919 1.100824,-1.666559 1.859377,-3.537943 2.330136,-5.74855 0.286911,-1.347288 0.285892,-4.422337 -0.0019,-5.868428 C 77.333624,9.9369128 75.938518,7.2090887 73.777848,4.948989 71.591945,2.6624936 69.347029,1.2751836 66.452112,0.42183932 L 65.459418,0.1292196 66.224389,0.1230036 C 66.645123,0.1195846 67.696211,0.172383 68.56014,0.24033304 79.759249,1.1211687 90.233802,4.7675671 99.444593,10.991821 c 3.538947,2.39147 6.176317,4.580462 9.407027,7.807757 3.99533,3.9911 7.17643,8.120786 9.98062,12.956759 1.1805,2.035851 3.24499,6.281337 4.07403,8.377994 2.138,5.406989 3.60307,11.417426 4.23733,17.383534 0.294,2.765508 0.29395,9.811858 -9e-5,12.437874 -0.91489,8.170789 -2.81926,14.860736 -6.20018,21.780877 -1.92899,3.948299 -4.27077,7.787465 -5.3413,8.756644 -2.27607,2.06058 -4.89544,3.42242 -7.75262,4.03067 -1.13269,0.24113 -4.26433,0.41109 -5.13477,0.27867 z"
     id="path5"
     transform="translate(-0.004,-0.001)" />
  <path
     style="fill:#9f8397;fill-opacity:1;stroke:#ffffff;stroke-width:0.116788"
     d="M 61.430248,127.39991 C 47.457151,126.94772 33.887621,121.75424 23.004822,112.69329 17.980324,108.50992 13.16078,103.03957 11.387573,99.507303 10.853784,98.443983 10.125799,96.251167 9.9128095,95.065061 9.6623135,93.670089 9.7227176,90.594936 10.029193,89.14 c 1.300285,-6.172862 6.168082,-11.086945 12.238189,-12.35456 1.275933,-0.266452 4.991884,-0.266452 6.267817,0 1.916561,0.400234 4.046239,1.318405 5.713127,2.463109 1.460765,1.003154 2.050208,1.563787 2.789542,2.653192 2.280918,3.360925 5.193106,6.265228 8.59494,8.571671 1.248817,0.846698 4.767119,2.643822 6.491678,3.315902 2.308001,0.899456 4.937663,1.561527 7.670736,1.931265 1.981178,0.268018 5.941716,0.268488 7.999947,9.49e-4 5.996588,-0.779468 11.423146,-3.079257 16.195412,-6.863655 1.383954,-1.097474 3.707199,-3.383654 4.703385,-4.628347 0.374249,-0.46761 0.697418,-0.833236 0.71815,-0.812504 0.02073,0.02073 -0.09233,0.447152 -0.251251,0.947597 -0.73548,2.316041 -0.900671,5.444403 -0.41086,7.780753 1.409771,6.724455 6.343031,11.465098 13.147125,12.633788 1.15679,0.1987 1.69708,0.22908 3.09487,0.17404 3.86549,-0.15223 7.22901,-1.42218 10.01453,-3.78115 0.33723,-0.28559 0.61314,-0.48725 0.61314,-0.44813 0,0.0892 -1.11355,1.59283 -2.03641,2.74984 -8.79423,11.0256 -20.880602,18.76227 -34.576487,22.13294 -5.870083,1.44468 -11.282647,1.99688 -17.576525,1.79321 z"
     id="path6"
     transform="translate(-0.004,-0.001)" />
</svg>
